HIERARCHY
ROOT hip
{
  OFFSET 0 0 0
  CHANNELS 6 Xposition Yposition Zposition Zrotation Yrotation Xrotation
  JOINT abdomen
  {
    OFFSET 0 20.6881 -0.73152
    CHANNELS 3 Zrotation Xrotation Yrotation
    JOINT chest
    {
      OFFSET 0 11.7043 -0.48768
      CHANNELS 3 Zrotation Xrotation Yrotation
      JOINT neck
      {
        OFFSET 0 22.1894 -2.19456
        CHANNELS 3 Zrotation Xrotation Yrotation
        JOINT head
        {
          OFFSET -0.24384 7.07133 1.2192
          CHANNELS 3 Zrotation Xrotation Yrotation
          JOINT leftEye
          {
            OFFSET 4.14528 8.04674 8.04672
            CHANNELS 3 Zrotation Xrotation Yrotation
            End Site
            {
              OFFSET 1 0 0
            }
          }
          JOINT rightEye
          {
            OFFSET -3.6576 8.04674 8.04672
            CHANNELS 3 Zrotation Xrotation Yrotation
            End Site
            {
              OFFSET 1 0 0
            }
          }
        }
      }
      JOINT rCollar
      {
        OFFSET -2.68224 19.2634 -4.8768
        CHANNELS 3 Zrotation Xrotation Yrotation
        JOINT rShldr
        {
          OFFSET -8.77824 -1.95073 1.46304
          CHANNELS 3 Zrotation Xrotation Yrotation
          JOINT rForeArm
          {
            OFFSET -28.1742 -1.7115 0.48768
            CHANNELS 3 Zrotation Xrotation Yrotation
            JOINT rHand
            {
              OFFSET -22.5879 0.773209 7.07136
              CHANNELS 3 Zrotation Xrotation Yrotation
              JOINT rThumb1
              {
                OFFSET -1.2192 -0.487915 3.41376
                CHANNELS 3 Zrotation Xrotation Yrotation
                JOINT rThumb2
                {
                  OFFSET -3.37035 -0.52449 3.41376
                  CHANNELS 3 Zrotation Xrotation Yrotation
                  End Site
                  {
                    OFFSET -1.78271 -1.18214 1.43049
                  }
                }
              }
              JOINT rIndex1
              {
                OFFSET -7.75947 0.938293 5.60832
                CHANNELS 3 Zrotation Xrotation Yrotation
                JOINT rIndex2
                {
                  OFFSET -2.54057 -0.884171 1.56538
                  CHANNELS 3 Zrotation Xrotation Yrotation
                  End Site
                  {
                    OFFSET -1.62519 -0.234802 1.16502
                  }
                }
              }
              JOINT rMid1
              {
                OFFSET -8.24714 1.18213 3.41376
                CHANNELS 3 Zrotation Xrotation Yrotation
                JOINT rMid2
                {
                  OFFSET -3.10165 -0.590103 1.0647
                  CHANNELS 3 Zrotation Xrotation Yrotation
                  End Site
                  {
                    OFFSET -2.48547 -0.328903 0.83742
                  }
                }
              }
              JOINT rRing1
              {
                OFFSET -8.82822 0.546677 1.51678
                CHANNELS 3 Zrotation Xrotation Yrotation
                JOINT rRing2
                {
                  OFFSET -2.60934 -0.819778 -0.0198488
                  CHANNELS 3 Zrotation Xrotation Yrotation
                  End Site
                  {
                    OFFSET -2.33842 -0.294052 0.168128
                  }
                }
              }
              JOINT rPinky1
              {
                OFFSET -8.27202 -0.0477905 -0.4584
                CHANNELS 3 Zrotation Xrotation Yrotation
                JOINT rPinky2
                {
                  OFFSET -1.82734 -0.647385 -0.700984
                  CHANNELS 3 Zrotation Xrotation Yrotation
                  End Site
                  {
                    OFFSET -1.69225 -0.51767 -0.607171
                  }
                }
              }
            }
          }
        }
      }
      JOINT lCollar
      {
        OFFSET 2.68224 19.2634 -4.8768
        CHANNELS 3 Zrotation Xrotation Yrotation
        JOINT lShldr
        {
          OFFSET 8.77824 -1.95073 1.46304
          CHANNELS 3 Zrotation Xrotation Yrotation
          JOINT lForeArm
          {
            OFFSET 28.1742 -1.7115 0.48768
            CHANNELS 3 Zrotation Xrotation Yrotation
            JOINT lHand
            {
              OFFSET 22.5879 0.773209 7.07136
              CHANNELS 3 Zrotation Xrotation Yrotation
              JOINT lThumb1
              {
                OFFSET 1.2192 -0.487915 3.41376
                CHANNELS 3 Zrotation Xrotation Yrotation
                JOINT lThumb2
                {
                  OFFSET 3.37035 -0.52449 3.41376
                  CHANNELS 3 Zrotation Xrotation Yrotation
                  End Site
                  {
                    OFFSET 1.78271 -1.18214 1.43049
                  }
                }
              }
              JOINT lIndex1
              {
                OFFSET 7.75947 0.938293 5.60832
                CHANNELS 3 Zrotation Xrotation Yrotation
                JOINT lIndex2
                {
                  OFFSET 2.54057 -0.884171 1.56538
                  CHANNELS 3 Zrotation Xrotation Yrotation
                  End Site
                  {
                    OFFSET 1.62519 -0.234802 1.16502
                  }
                }
              }
              JOINT lMid1
              {
                OFFSET 8.24714 1.18213 3.41376
                CHANNELS 3 Zrotation Xrotation Yrotation
                JOINT lMid2
                {
                  OFFSET 3.10165 -0.590103 1.0647
                  CHANNELS 3 Zrotation Xrotation Yrotation
                  End Site
                  {
                    OFFSET 2.48547 -0.328903 0.83742
                  }
                }
              }
              JOINT lRing1
              {
                OFFSET 8.82822 0.546677 1.51678
                CHANNELS 3 Zrotation Xrotation Yrotation
                JOINT lRing2
                {
                  OFFSET 2.60934 -0.819778 -0.0198488
                  CHANNELS 3 Zrotation Xrotation Yrotation
                  End Site
                  {
                    OFFSET 2.33842 -0.294052 0.168128
                  }
                }
              }
              JOINT lPinky1
              {
                OFFSET 8.27202 -0.0477905 -0.4584
                CHANNELS 3 Zrotation Xrotation Yrotation
                JOINT lPinky2
                {
                  OFFSET 1.82734 -0.647385 -0.700984
                  CHANNELS 3 Zrotation Xrotation Yrotation
                  End Site
                  {
                    OFFSET 1.69225 -0.51767 -0.607171
                  }
                }
              }
            }
          }
        }
      }
    }
  }
  JOINT rButtock
  {
    OFFSET -8.77824 4.35084 1.2192
    CHANNELS 3 Zrotation Xrotation Yrotation
    JOINT rThigh
    {
      OFFSET 0 -1.70687 -2.19456
      CHANNELS 3 Zrotation Xrotation Yrotation
      JOINT rShin
      {
        OFFSET 0 -36.8199 0.73152
        CHANNELS 3 Zrotation Xrotation Yrotation
        JOINT rFoot
        {
          OFFSET 0.73152 -45.1104 -5.12064
          CHANNELS 3 Zrotation Xrotation Yrotation
          End Site
          {
            OFFSET -1.1221 -3.69964 12.103
          }
        }
      }
    }
  }
  JOINT lButtock
  {
    OFFSET 8.77824 4.35084 1.2192
    CHANNELS 3 Zrotation Xrotation Yrotation
    JOINT lThigh
    {
      OFFSET 0 -1.70687 -2.19456
      CHANNELS 3 Zrotation Xrotation Yrotation
      JOINT lShin
      {
        OFFSET 0 -36.8199 0.73152
        CHANNELS 3 Zrotation Xrotation Yrotation
        JOINT lFoot
        {
          OFFSET -0.73152 -45.1104 -5.12064
          CHANNELS 3 Zrotation Xrotation Yrotation
          End Site
          {
            OFFSET 1.1221 -3.69964 12.103
          }
        }
      }
    }
  }
}
MOTION
Frames:	8
Frame Time:	0.03333
0.0 0.0 0.0 0.0 0.0 0.0 0.0 0.0 0.0 0.0 0.0 0.0 0.0 0.0 0.0 0.0 0.0 0.0 0.0 0.0 0.0 0.0 0.0 0.0 0.0 0.0 0.0 0.0 0.0 0.0 0.0 0.0 0.0 0.0 0.0 0.0 0.0 0.0 0.0 0.0 0.0 0.0 0.0 0.0 0.0 0.0 0.0 0.0 0.0 0.0 0.0 0.0 0.0 0.0 0.0 0.0 0.0 0.0 0.0 0.0 0.0 0.0 0.0 0.0 0.0 0.0 0.0 0.0 0.0 0.0 0.0 0.0 0.0 0.0 0.0 0.0 0.0 0.0 0.0 0.0 0.0 0.0 0.0 0.0 0.0 0.0 0.0 0.0 0.0 0.0 0.0 0.0 0.0 0.0 0.0 0.0 0.0 0.0 0.0 0.0 0.0 0.0 0.0 0.0 0.0 0.0 0.0 0.0 0.0 0.0 0.0 0.0 0.0 0.0 0.0 0.0 0.0 0.0 0.0 0.0 0.0 0.0 0.0 0.0 0.0 0.0 0.0 0.0 0.0 0.0 0.0 0.0
0.0366 73.7975 0.9929 -3.884085 -9.832525 6.839282 1.0916 2.83075 158.902095 -1.729243 3.141609 -140.486868 7.090971 25.918412 98.773263 -33.76519 15.529072 -120.290112 0.001869 -0.0 -0.001955 0.001869 -0.0 -0.001955 -150.119891 21.701226 155.219934 115.203814 12.804914 -133.432202 118.483271 -55.867234 31.54378 156.107506 -27.217159 146.41054 -165.648653 -3.320866 89.685489 -4.441393 -48.417287 10.19612 -16.402267 21.463999 11.21889 -178.272525 -32.206903 107.510249 7.902548 -24.807847 -3.014121 42.547766 -69.809623 17.10104 -13.619395 -53.679708 -25.682792 -136.292778 -76.038434 -162.654771 -75.778617 -51.667025 -74.249728 -24.075867 -40.969281 -26.066448 -0.070936 -0.427871 0.094266 -21.336748 45.821185 -81.973155 173.775006 34.673842 -41.768702 -148.25416 -43.47718 -134.756629 172.74651 -10.423356 -89.929922 -83.20796 -68.469311 -63.429527 138.494139 4.896257 -114.864309 -95.112612 -70.102767 -44.15455 158.521167 -0.192379 -142.144748 172.286877 -31.365412 -143.654869 0.013851 -1.323172 0.415769 -9.18324 14.190058 -1.88362 168.128078 80.281315 148.048145 138.508292 -13.335298 134.348412 0.000942 -0.00096 -0.0 -3.314139 -18.280606 -180.0 -45.681201 -57.549416 -156.502631 -95.519672 -58.543909 -175.945211 0.000271 0.00079 -0.000348 12.26783 -60.682868 120.921054 73.000261 -24.776201 7.43161 -160.528802 -6.879999 86.649832
-0.0051 74.0943 1.4173 -3.535337 -6.253525 6.317549 0.159023 6.935145 39.724718 -4.035801 -6.640203 -22.31593 -12.420614 33.226603 -120.021513 34.55623 27.629494 86.435062 0.003463 0.0 0.001042 0.003804 0.0 0.00253 -159.221475 -48.028647 170.414232 130.467463 36.197313 -70.789902 5.450153 38.051055 54.335108 -14.768534 64.715507 11.039972 -0.442223 0.435006 0.069604 10.639835 -15.08736 -7.953676 -27.170398 30.469649 19.889526 179.865967 -33.520548 107.747066 -89.83633 60.702849 81.262517 -4.843711 21.315639 4.6278 -145.118594 0.185651 -179.186079 11.201947 13.760727 -7.377527 -46.799158 -48.626369 -45.558405 -85.37659 -53.168059 -85.767215 0.048427 0.292503 -0.064459 55.645445 17.041343 -132.961866 -63.32729 0.081714 -174.47381 179.156282 35.831131 -152.087533 -83.253286 -50.258734 -33.61653 15.606021 -37.949861 28.730995 155.194518 -24.299915 -122.142206 -95.977637 -70.655977 -42.172504 169.08971 -33.247444 -145.374536 -86.484602 -77.993191 -57.85173 73.383577 72.973224 -91.300574 -5.208035 26.573593 0.952066 -12.633403 42.933959 -10.531851 22.244141 -38.772628 22.399256 -0.0 0.00036 0.001047 -2.144215 -15.998283 -13.549193 -1.177626 73.770145 -143.85587 72.477922 -48.135642 160.373757 0.005271 -0.000313 0.005271 10.93624 -58.525284 9.47135 14.791795 68.317155 61.279322 -170.310914 -33.447684 65.682324
-0.0625 74.33340000000001 1.8520999999999999 -3.357588 -3.135795 6.071277 -0.324 3.281018 132.408915 -4.112968 1.783035 -115.329003 -15.105797 24.997091 -65.821201 35.601589 -2.730279 39.477623 0.002051 0.0 2.4e-05 0.002051 0.0 2.4e-05 -159.22119 -48.725091 170.567129 -135.957274 26.368483 -124.847564 137.36402 21.054616 113.76599 163.347554 -12.220163 150.937359 2.462443 -2.446123 -0.327252 20.892093 -36.646235 -16.747148 -151.353412 -17.158668 121.132348 95.744845 -70.674216 42.636047 -169.090963 -33.247552 145.372722 5.10677 -5.879585 -0.336369 -145.098505 -1.522509 -178.650827 -150.975126 -31.741134 -173.879174 -146.526573 16.474335 -143.012971 -24.251532 -39.105042 -25.576566 9.652254 34.836114 -11.199323 84.010769 -8.805723 -99.24917 -171.933619 -42.679685 88.607777 14.755165 55.623556 -7.391024 0.441897 0.435088 -0.070392 143.129634 -50.391734 -120.069821 108.428173 34.160846 -91.742564 -6.469309 -0.059075 6.565211 169.089067 -33.2472 -145.376555 -80.931938 -77.658373 -52.574864 -0.000204 -0.018549 0.005726 148.213107 -76.780598 171.085841 145.173803 12.067348 141.82331 147.33268 11.049359 141.543752 -0.000206 0.000263 0.000265 -1.23558 -16.143107 -4.435741 5.612804 66.054539 -83.964582 -62.107086 -57.688147 22.924424 -179.998929 75.751124 -0.001105 -175.434513 14.940875 162.791369 53.73671 -61.736281 115.57962 -144.018343 58.771889 -142.646393
-0.0897 74.5168 2.2363 -3.22991 -0.355735 5.858884 -0.617073 2.995475 133.332798 -4.081837 1.691658 -116.92486 1.845287 18.916062 44.676209 -24.136374 -15.201571 -79.178986 -0.000556 0.0 -0.000518 -0.000556 0.0 -0.000518 -142.973023 39.431349 147.389535 148.225734 -32.331864 -142.684183 -84.666192 17.459901 82.509731 15.551348 -18.983985 13.879012 88.928061 -50.832071 37.599899 -119.104639 31.955408 81.150259 179.291653 -59.501956 116.315434 -160.016509 -20.442021 118.206809 -121.551111 52.186044 111.462758 -18.00188 42.195599 14.742231 -0.015573 -1.323208 -0.415489 -145.896705 50.882676 160.463735 -1.204197 -3.047996 -1.11282 3.306469 2.152814 0.654982 9.651012 34.836357 -11.198575 -78.465167 4.650896 -81.931677 -163.194406 -8.357959 -40.89228 -163.889437 -19.070652 -145.71016 85.828882 38.631196 -47.95585 -92.335934 -51.69569 -38.048706 8.571475 12.508959 -5.449947 -167.185333 -46.085981 -99.471846 -12.028668 -37.299315 3.218661 171.127963 -28.274221 -144.196114 -0.004965 1.771639 -0.554834 155.969668 -7.862356 -172.795605 146.227931 15.471015 142.745635 44.527311 -49.385064 45.014643 -179.99118 75.749118 -0.006035 179.379023 59.347976 -3.889252 30.592631 65.603403 98.753746 41.498525 39.02825 -169.662739 0.002971 0.000524 0.001486 7.422246 -57.919271 -0.0 -17.972079 73.674116 169.203722 48.791653 49.303238 -164.67503
-0.10709999999999999 74.6834 2.5619 -3.070371 2.249101 5.731038 -0.932016 2.609908 136.104326 -3.925678 1.615565 -120.438189 -15.451336 26.104021 -69.2157 36.700752 -0.648766 38.971732 -0.000574 0.0 -0.005135 0.000252 0.0 0.00178 -142.973312 39.43121 147.389119 9.967195 62.500929 -69.655816 -156.938675 22.227807 -131.597726 -4.990642 46.611853 6.735192 -85.829351 38.630815 47.955483 -54.416203 -1.206695 48.272967 -158.402937 -30.156201 122.603135 -173.447384 -39.953339 116.355294 -169.089713 -33.247548 145.373936 80.937217 -77.653843 52.580183 0.000925 0.06367 0.020709 -156.068652 -12.555729 173.345144 25.915416 79.094353 10.831001 -153.640884 28.938237 -146.151525 -3.191052 -25.838903 5.075032 75.366481 -0.164047 -160.820968 124.408286 -19.989485 51.920677 -6.904943 -4.163148 -5.139896 -0.567946 -0.561399 0.084718 133.300466 -32.485473 -117.170431 134.541592 10.541277 -112.294286 158.026689 -2.833268 -117.92663 160.099399 -4.900926 -142.968994 -80.986825 -77.628611 -52.534636 145.096907 -1.604727 178.623093 -10.349641 -0.13706 9.01517 -0.101626 0.257751 -0.09148 105.495064 -48.068997 104.619906 0.002111 -0.001648 0.002111 0.289136 -16.735455 1.004013 6.06901 64.492664 -90.793029 -52.92 -60.780805 28.792611 0.002278 0.001192 0.002278 6.357258 -59.900331 -162.828262 -41.809057 -71.703213 -67.846223 -161.298431 3.60293 147.088538
-0.1119 74.83959999999999 2.849 -2.919445 4.767608 5.636984 0.297265 6.503557 -0.021364 0.204164 -7.922363 14.716907 6.16707 24.531267 81.606237 -34.273625 4.965587 -115.230441 -0.00179 -0.0 0.002234 -0.002307 0.0 -0.003302 -9.651119 34.836316 11.19875 73.744703 -23.417504 106.740099 170.396109 -27.024045 77.851356 141.921462 -45.200931 134.508768 -2.608886 2.554304 0.458258 -141.40504 -47.273765 118.373254 -19.171353 24.113911 13.381975 -67.156198 48.769541 49.329842 -8.417551 20.880218 5.645552 -167.797065 -19.033664 144.267777 -145.111768 -0.66791 -178.918198 -151.045147 -31.743403 -173.87598 -157.33005 57.24646 -150.511557 -24.59859 -39.194117 -25.134482 -0.118347 -0.714124 0.157027 -85.742882 14.663988 -47.138777 -147.329665 -10.132239 -37.741865 -167.949672 -6.476277 -148.970282 -1.843037 -1.82687 0.254452 123.632975 -14.304533 -111.180506 1.955941 3.1057 -1.141015 166.696301 -20.374377 -109.631581 160.099362 -4.900801 -142.96947 42.491548 58.275055 -36.597398 145.123035 1.974299 179.749136 -11.510615 22.80153 6.377902 163.643331 74.574305 150.514643 -43.252398 80.458457 7.758852 0.00097 -0.00119 0.0 0.800177 -16.989875 -0.0 13.393874 69.472043 -169.127505 -156.607734 52.312566 -109.374548 -179.989619 75.749736 -0.007103 -178.665656 16.160888 148.592986 44.445838 -55.542199 -78.627892 113.414559 -60.255352 6.55863
-0.1186 75.0051 3.1251 -2.752348 7.313457 5.438745 -0.067365 1.615475 -177.611843 -0.051608 3.181371 -168.823945 -12.774902 21.213591 -36.233102 26.207244 -17.65221 6.419699 0.001878 0.0 0.001795 0.001878 0.0 0.001795 -0.000231 -8.9e-05 0.000639 -99.816167 0.846601 102.312595 179.757823 -46.029781 -120.777162 -15.29785 65.76357 11.649172 51.059641 -41.203923 12.857019 -4.728278 -47.69031 -33.729901 -100.824078 37.73531 85.162922 -104.151971 50.055621 78.733745 23.903544 -61.333889 1.398181 -164.181024 -6.969155 143.451697 -72.348829 72.975694 90.217591 4.951056 -24.920479 -7.861205 -23.392039 -36.349031 -22.493853 8.631425 16.838806 4.062121 -4.239889 -44.742744 8.64735 -94.52395 25.571255 -1.864933 15.532439 26.625363 -99.714595 4.122805 35.534852 -3.913457 171.652986 -9.33633 -89.95045 86.77349 9.367891 -32.012145 5.794892 8.773062 -3.566024 -7.095307 4.865327 -0.30146 160.099187 -4.901079 -142.96857 171.286294 -28.580916 -143.797285 145.099323 -1.520778 178.649498 157.194158 45.54 -175.528918 86.002027 -50.49599 84.370173 -51.651787 82.749251 13.381954 179.99874 75.748971 -0.0 -178.177218 58.56099 0.0 23.971056 57.924405 50.201562 -14.10622 76.046569 -85.79774 -179.970844 75.750065 -0.023989 -179.611799 16.342248 170.720679 10.300697 -71.966244 -59.648178 -59.570904 -56.693294 -152.125303
